#!OML:ASF F:\VICON\USERDATA\INSTALL\rory3\rory3.ASF
:FULLY-SPECIFIED
:DEGREES
81
root 3.94949 17.9513 24.7892 -6.30726 -9.68114 -3.05552
lowerback 24.2582 -3.06428 3.78364
upperback 3.08324 -2.50274 4.87354
thorax -10.0477 -1.23538 4.08676
lowerneck -5.7605 -2.82506 -1.82529
upperneck 33.237 -2.95175 -3.59316
head 11.7739 -2.04805 -1.37636
rclavicle 5.04913e-014 -1.27222e-014
rhumerus -27.4234 -0.775266 -31.8143
rradius 138.716
rwrist 20.2397
rhand 8.85612 6.13195
rfingers 7.12502
rthumb 34.0406 -20.6428
lclavicle 5.04913e-014 -1.27222e-014
lhumerus -53.1318 11.596 75.4517
lradius 59.1955
lwrist 4.32614
lhand -10.3881 46.5521
lfingers 7.12502
lthumb 15.6099 75.9422
rfemur -6.09512 2.86953 29.223
rtibia 39.2869
rfoot -17.4421 -8.49485
rtoes 11.4143
lfemur -25.7187 -1.68372 -12.7021
ltibia 42.8586
lfoot -9.064 3.53432
ltoes -23.8624
82
root 3.972 17.9669 24.6253 -6.21679 -9.43618 -2.18714
lowerback 24.1123 -3.01917 3.15247
upperback 2.84506 -2.62828 4.6453
thorax -10.2173 -1.27105 4.2351
lowerneck -5.27334 -2.87435 -1.81758
upperneck 33.1166 -3.04665 -3.58329
head 11.6245 -2.08683 -1.37013
rclavicle 5.725e-014 3.18055e-015
rhumerus -28.1456 3.35583 -34.3323
rradius 137.509
rwrist 22.8767
rhand 7.80669 6.08228
rfingers 7.12502
rthumb 33.0432 -20.9088
lclavicle 5.725e-014 3.18055e-015
lhumerus -53.1915 11.1554 75.8566
lradius 59.0594
lwrist 4.06516
lhand -10.2072 46.3865
lfingers 7.12502
lthumb 15.7841 75.763
rfemur -7.08564 2.52737 28.1319
rtibia 39.5583
rfoot -17.1974 -8.17821
rtoes 12.0535
lfemur -25.7946 -1.36437 -13.9291
ltibia 44.8273
lfoot -9.30376 3.43828
ltoes -23.2464
83
root 3.97887 17.9628 24.4597 -6.39924 -9.69646 -2.47427
lowerback 24.3838 -2.9511 3.24166
upperback 2.86305 -2.48145 4.81498
thorax -10.3443 -1.20063 4.34576
lowerneck -5.06715 -2.8469 -1.67286
upperneck 33.0671 -2.96144 -3.84218
head 11.5552 -2.06037 -1.47603
rclavicle 3.26007e-014 -1.11319e-014
rhumerus -28.6022 7.05359 -36.8659
rradius 135.909
rwrist 25.6218
rhand 6.93708 5.99203
rfingers 7.12502
rthumb 32.2158 -21.1704
lclavicle 3.26007e-014 -1.11319e-014
lhumerus -53.0972 10.7597 76.3039
lradius 58.9057
lwrist 3.98238
lhand -10.1055 46.8848
lfingers 7.12502
lthumb 15.882 76.2535
rfemur -7.57302 2.90771 28.5936
rtibia 39.7525
rfoot -16.9292 -8.31338
rtoes 12.6789
lfemur -25.4723 -0.527599 -13.6895
ltibia 46.8672
lfoot -9.38348 3.08268
ltoes -22.6483
84
root 3.99176 17.962 24.2973 -6.59007 -9.83759 -2.1456
lowerback 24.494 -2.83818 2.89035
upperback 2.91733 -2.43018 4.75769
thorax -10.3313 -1.16398 4.46932
lowerneck -5.39753 -2.8428 -1.57989
upperneck 33.4118 -2.93228 -3.93486
head 11.7583 -2.05072 -1.54147
rclavicle 8.42847e-014 -7.95139e-015
rhumerus -29.2649 10.4732 -39.4817
rradius 134.2
rwrist 28.0895
rhand 6.2362 5.49103
rfingers 7.12502
rthumb 31.5484 -21.8045
lclavicle 8.42847e-014 -7.95139e-015
lhumerus -52.7403 10.4751 76.7178
lradius 58.6054
lwrist 3.80906
lhand -10.0418 47.0723
lfingers 7.12502
lthumb 15.9434 76.4361
rfemur -8.1423 3.03208 28.2632
rtibia 40.0047
rfoot -16.6445 -8.242
rtoes 12.7487
lfemur -25.1218 0.10467 -14.1914
ltibia 48.8779
lfoot -9.56699 2.95717
ltoes -23.0328
85
root 4.01101 17.9752 24.1501 -6.67002 -9.71867 -1.8981
lowerback 24.1846 -2.83663 2.89636
upperback 3.07487 -2.46547 4.65902
thorax -9.99152 -1.18862 4.33512
lowerneck -5.94023 -2.9574 -1.53016
upperneck 33.72 -3.07613 -3.96982
head 11.9915 -2.1159 -1.60169
rclavicle -5.56597e-015 0
rhumerus -30.0688 13.2596 -41.9709
rradius 132.304
rwrist 30.1804
rhand 5.44901 5.11147
rfingers 7.12502
rthumb 30.7982 -22.3283
lclavicle -5.56597e-015 0
lhumerus -52.1885 10.1008 77.1252
lradius 58.4438
lwrist 3.68859
lhand -9.7953 47.2573
lfingers 7.12502
lthumb 16.1808 76.602
rfemur -8.67369 2.76166 27.8796
rtibia 40.1127
rfoot -16.3862 -7.97128
rtoes 13.3113
lfemur -24.7259 0.457898 -14.6796
ltibia 50.7262
lfoot -9.81862 2.70464
ltoes -23.9418
86
root 4.02766 17.9591 23.9591 -6.36843 -9.76412 -2.62871
lowerback 24.3678 -2.90356 3.49034
upperback 3.02675 -2.35205 4.93423
thorax -10.1613 -1.15033 4.28469
lowerneck -6.22819 -3.01916 -1.67475
upperneck 33.7856 -3.16988 -3.84025
head 12.0834 -2.16079 -1.54754
rclavicle 4.09496e-014 -6.36111e-015
rhumerus -30.7875 15.8315 -44.4832
rradius 130.088
rwrist 32.0582
rhand 4.86154 4.74713
rfingers 7.12502
rthumb 30.2379 -22.7968
lclavicle 4.09496e-014 -6.36111e-015
lhumerus -51.7829 9.87997 77.5024
lradius 58.3472
lwrist 3.6503
lhand -9.46196 47.6474
lfingers 7.12502
lthumb 16.5017 76.9657
rfemur -9.75556 3.11113 28.7592
rtibia 40.2553
rfoot -15.9346 -8.2278
rtoes 14.695
lfemur -24.9449 1.0161 -13.9251
ltibia 52.6514
lfoot -9.41299 2.11565
ltoes -25.4408
87
root 4.04713 17.9814 23.8382 -6.70024 -9.55395 -1.37721
lowerback 24.033 -2.84083 2.39545
upperback 3.01432 -2.60802 4.65202
thorax -9.9499 -1.23709 4.65315
lowerneck -5.96324 -3.03049 -1.95973
upperneck 33.6205 -3.19273 -3.68976
head 11.9717 -2.18717 -1.43262
rclavicle 6.16232e-014 4.77083e-015
rhumerus -31.6205 18.3934 -46.9381
rradius 127.573
rwrist 33.6991
rhand 4.12538 4.24806
rfingers 7.12502
rthumb 29.5354 -23.4223
lclavicle 6.16232e-014 4.77083e-015
lhumerus -51.9255 9.60539 77.8537
lradius 58.4301
lwrist 4.02974
lhand -9.49637 48.3616
lfingers 7.12502
lthumb 16.4686 77.6826
rfemur -10.0157 2.68406 27.2113
rtibia 40.3351
rfoot -15.9521 -7.66292
rtoes 15.4211
lfemur -23.9773 1.20172 -15.5441
ltibia 54.1656
lfoot -9.57103 1.91393
ltoes -25.8645
88
root 4.06849 17.9763 23.6716 -6.67109 -9.61412 -1.03175
lowerback 24.0421 -2.7499 2.10363
upperback 2.91691 -2.56469 4.60425
thorax -10.0565 -1.20371 4.75945
lowerneck -5.99928 -3.08716 -2.11152
upperneck 33.5989 -3.27868 -3.58459
head 11.9759 -2.23143 -1.37683
rclavicle 3.02153e-014 -5.40694e-014
rhumerus -32.3625 20.3326 -49.32
rradius 124.794
rwrist 34.8603
rhand 2.9772 3.66385
rfingers 7.12502
rthumb 28.4388 -24.195
lclavicle 3.02153e-014 -5.40694e-014
lhumerus -51.7946 9.07428 78.3065
lradius 58.3445
lwrist 4.50795
lhand -9.88792 48.2978
lfingers 7.12502
lthumb 16.0916 77.6496
rfemur -10.7409 2.869 26.8108
rtibia 40.42
rfoot -15.6188 -7.51803
rtoes 15.766
lfemur -23.6463 1.61259 -16.0547
ltibia 55.8155
lfoot -9.59215 1.75635
ltoes -26.3286
89
root 4.08721 17.9722 23.5069 -6.64507 -9.6898 -1.05532
lowerback 24.0605 -2.69659 2.11341
upperback 2.94336 -2.48613 4.66958
thorax -10.0387 -1.16635 4.80214
lowerneck -6.50006 -3.187 -2.21718
upperneck 33.8614 -3.38838 -3.57159
head 12.1906 -2.2942 -1.38674
rclavicle 5.96354e-015 6.04305e-014
rhumerus -33.1155 21.7929 -51.3619
rradius 122.262
rwrist 35.9469
rhand 2.52342 3.68222
rfingers 7.12502
rthumb 28.0051 -24.2483
lclavicle 5.96354e-015 6.04305e-014
lhumerus -51.3525 8.75179 78.7024
lradius 58.0566
lwrist 4.71385
lhand -10.1538 48.145
lfingers 7.12502
lthumb 15.8355 77.5174
rfemur -11.3809 3.04675 26.8435
rtibia 40.3939
rfoot -15.2437 -7.56829
rtoes 15.4688
lfemur -23.1967 1.99054 -16.1079
ltibia 57.3178
lfoot -9.50541 1.42649
ltoes -26.6264
90
root 4.10285 17.9672 23.337 -6.69771 -9.69515 -1.05372
lowerback 24.2863 -2.645 2.12932
upperback 2.80571 -2.39397 4.67605
thorax -10.3209 -1.11689 4.7945
lowerneck -6.30033 -3.32078 -2.38003
upperneck 33.9238 -3.60076 -3.44634
head 12.181 -2.39424 -1.33306
rclavicle -1.11319e-014 -2.8625e-014
rhumerus -34.2596 23.0142 -53.4946
rradius 119.631
rwrist 36.7789
rhand 2.3507 3.37384
rfingers 7.12502
rthumb 27.8399 -24.5835
lclavicle -1.11319e-014 -2.8625e-014
lhumerus -51.3253 8.22924 78.9833
lradius 58.097
lwrist 4.92392
lhand -10.1069 48.3467
lfingers 7.12502
lthumb 15.8807 77.7155
rfemur -11.9189 3.25865 26.8742
rtibia 40.2755
rfoot -14.804 -7.68794
rtoes 15.4213
lfemur -22.6773 2.30967 -16.1273
ltibia 58.8724
lfoot -9.4443 0.922229
ltoes -26.6561
91
root 4.11956 17.9668 23.1751 -6.72824 -9.58568 -0.949985
lowerback 24.4138 -2.62103 2.02763
upperback 2.57762 -2.36201 4.7506
thorax -10.6426 -1.08764 4.95011
lowerneck -5.83807 -3.43069 -2.79592
upperneck 33.8729 -3.74568 -3.31546
head 12.0803 -2.49415 -1.21525
rclavicle -2.16675e-014 -1.59028e-015
rhumerus -35.2216 24.1999 -55.6217
rradius 116.509
rwrist 37.2081
rhand 1.66999 3.0128
rfingers 7.12502
rthumb 27.1889 -25.0482
lclavicle -2.16675e-014 -1.59028e-015
lhumerus -51.609 7.79322 79.393
lradius 58.2828
lwrist 5.11352
lhand -9.90907 48.2584
lfingers 7.12502
lthumb 16.0712 77.6119
rfemur -12.388 3.33735 26.7513
rtibia 40.0683
rfoot -14.4795 -7.71965
rtoes 16.0916
lfemur -22.0034 2.53387 -16.2777
ltibia 60.1259
lfoot -9.28236 0.347796
ltoes -25.8599
92
root 4.13666 17.9578 22.9959 -6.563 -9.68387 -1.33216
lowerback 24.3196 -2.68161 2.19005
upperback 2.90326 -2.4011 4.93935
thorax -10.2187 -1.11993 5.05654
lowerneck -7.0379 -3.46195 -2.84006
upperneck 33.8919 -3.72669 -3.31184
head 12.3394 -2.49056 -1.23616
rclavicle 3.63776e-014 2.22639e-014
rhumerus -34.4427 24.8237 -57.344
rradius 112.875
rwrist 37.5187
rhand 1.00216 3.0616
rfingers 7.12502
rthumb 26.5499 -25.0977
lclavicle 3.63776e-014 2.22639e-014
lhumerus -50.6781 7.98136 79.5756
lradius 58.3872
lwrist 5.17724
lhand -9.8915 48.1748
lfingers 7.12502
lthumb 16.0881 77.527
rfemur -13.0967 3.75 27.2204
rtibia 39.8502
rfoot -14.0532 -7.81487
rtoes 18.197
lfemur -21.6082 2.82185 -15.8419
ltibia 61.3895
lfoot -8.79102 -0.136286
ltoes -25.7619
93
root 4.15907 17.9812 22.8858 -6.90518 -9.52259 -0.236273
lowerback 23.7874 -2.54042 1.39807
upperback 2.8429 -2.47596 4.67178
thorax -9.97612 -1.13398 5.20014
lowerneck -6.42936 -3.62566 -3.25136
upperneck 33.8984 -3.96249 -3.16368
head 12.2326 -2.62825 -1.12153
rclavicle 1.98785e-015 0
rhumerus -35.0731 25.3878 -59.0505
rradius 109.28
rwrist 37.5707
rhand 0.31833 3.59685
rfingers 7.12502
rthumb 25.8952 -24.6597
lclavicle 1.98785e-015 0
lhumerus -50.8947 7.38867 79.9669
lradius 58.5494
lwrist 5.32838
lhand -10.0205 48.0322
lfingers 7.12502
lthumb 15.9639 77.3943
rfemur -13.1821 3.4063 25.8598
rtibia 39.6394
rfoot -14.1662 -7.04168
rtoes 18.7544
lfemur -20.046 2.74191 -17.2533
ltibia 62.0419
lfoot -8.68032 -0.287611
ltoes -25.3455
